<svg id="logo_britelayer" class="u-show-v-scroll" data-name="Layer 1"
    xmlns="http://www.w3.org/2000/svg" viewBox="0 0 250 63.03">
    <defs>
        <style>.cls-1{fill:#2b2b2b;}</style>
    </defs>
    <path class="cls-1" d="M77.37,35.24,42,55.69a6.56,6.56,0,0,1-6.53,0L6.45,39V31.51L32.22,46.39a12.93,12.93,0,0,0,12.93,0l32.22-18.6V20.35L45.12,1.72a12.91,12.91,0,0,0-12.87,0L0,20.35V42.68L32.29,61.32a12.76,12.76,0,0,0,12.79,0L74.15,44.54h0A6.45,6.45,0,0,0,77.37,39Zm-35.52-28,3.29,1.9L19.34,24.07l12.89,7.44a12.89,12.89,0,0,0,12.91,0L58,24.07l-12.9-7.45,6.45-3.72L70.92,24.07,42,40.78a6.56,6.56,0,0,1-6.58,0L6.45,24.07,35.52,7.28A6.33,6.33,0,0,1,41.85,7.28ZM38.69,20.34l6.45,3.73-3.23,1.86a6.46,6.46,0,0,1-6.45,0l-3.22-1.86Z"/>
    <path class="cls-1" d="M111.44,20.36a7.81,7.81,0,0,0-6.69,3.16h-.08V12.85H98.84V42.14h5.54V39.43h.08c1.27,2.34,3.86,3.28,7,3.28,4.22,0,8.77-3.4,8.77-11.19S115.66,20.36,111.44,20.36Zm-2,18c-3.44,0-5-3.24-5-6.76s1.52-6.81,5-6.81,5,3.24,5,6.81S112.87,38.32,109.42,38.32Z"/>
    <rect class="cls-1" x="135.51" y="12.85" width="5.83" height="4.8"/>
    <path class="cls-1" d="M151.34,35.33V24.83h4.28v-3.9h-4.28V14.58h-5.82v6.35h-10a7.9,7.9,0,0,0-1.57-.07,8.05,8.05,0,0,0-7,4.73h-.08V20.93h-5.54V42.14h5.83V33.31c0-3.73,1.53-6.84,5.79-6.84a6.28,6.28,0,0,1,1.18.11l1.35-4.93V26.8h0V42.14h5.83V24.83h4.18V37.34c0,4.23,3.12,5,6.69,5a23,23,0,0,0,3.41-.21V37.63a9.3,9.3,0,0,1-1.81.16C151.84,37.79,151.34,37.3,151.34,35.33Z"/>
    <path class="cls-1" d="M166.24,20.36c-6.44,0-10.83,4.84-10.83,11.2,0,6.56,4.14,11.15,10.83,11.15,4.79,0,8.29-2.13,9.93-7.13H171c-.36,1.31-2.25,2.74-4.58,2.74-3.25,0-5-1.68-5.22-5.37h15.3C177,26.43,173.46,20.36,166.24,20.36Zm-5,8.9a4.6,4.6,0,0,1,4.85-4.51c2.82,0,4.1,1.56,4.63,4.51Z"/>
    <rect class="cls-1" x="178.3" y="12.85" width="2.59" height="29.29"/>
    <path class="cls-1" d="M200,38.41V27.17c0-5.66-4.06-6.81-7.8-6.81-4.84,0-8.32,2.13-8.57,7.1h2.58c.08-3.45,2.47-4.93,5.66-4.93,3,0,5.54.86,5.54,4.35,0,2.34-1.19,2.63-3.32,2.87-5.58.66-11.36.86-11.36,6.81,0,4.27,3.2,6.19,7.1,6.19,4.06,0,5.9-1.55,7.71-4.3h.08c0,2.22.41,3.69,3,3.69a7.35,7.35,0,0,0,1.69-.16V39.8a2.31,2.31,0,0,1-.83.17A1.38,1.38,0,0,1,200,38.41Zm-2.59-4.47c.05,4.14-3.44,6.64-7.38,6.64-2.42,0-4.72-1.6-4.72-4.18,0-4.14,5.45-4.1,9.85-4.88.69-.13,1.84-.33,2.17-.95h.08Z"/>
    <path class="cls-1" d="M217.06,21l-6.52,18-7-18h-2.75l8.45,21.08-.9,2.42c-.87,2-1.4,3.32-3.69,3.32a9.23,9.23,0,0,1-1.77-.2v2.17a6.4,6.4,0,0,0,2,.21c3.24,0,4.1-1,5.58-4.6L219.65,21Z"/>
    <path class="cls-1" d="M228.14,20.36c-6.73,0-9.56,5.62-9.56,11.2,0,6,2.83,11.19,9.56,11.19,5.33,0,8.12-2.78,9.23-7.58h-2.59c-.82,3.2-2.87,5.41-6.64,5.41-5,0-6.94-4.55-7-8.32h16.29C237.65,26.31,234.94,20.36,228.14,20.36Zm-7,9.72c.41-3.85,2.75-7.55,7-7.55s6.6,3.65,6.73,7.55Z"/>
    <path class="cls-1" d="M242,25.94h-.08V21h-2.38V42.14h2.58V30.86A7.3,7.3,0,0,1,250,23.27V20.69A7.82,7.82,0,0,0,242,25.94Z"/>
</svg>