<svg id="logo_digital_spark" class="u-show-v-scroll" data-name="Layer 1"
    xmlns="http://www.w3.org/2000/svg" viewBox="0 0 250 96.69">
    <defs>
        <style>.cls-1{fill:#2b2b2b;}</style>
    </defs>
    <path class="cls-1" d="M123.66,73a10.91,10.91,0,0,1,.37-1.91,18.81,18.81,0,0,1,.67-1.91,27.28,27.28,0,0,0,3.09.94,14.2,14.2,0,0,0,3.37.42c2.08,0,3.55-.36,4.42-1.08a3.45,3.45,0,0,0,1.3-2.74,3.14,3.14,0,0,0-.95-2.43,7.82,7.82,0,0,0-2.59-1.49l-2.7-1a20,20,0,0,1-2.88-1.27,8.8,8.8,0,0,1-2-1.47,5,5,0,0,1-1.13-1.84,7.61,7.61,0,0,1-.35-2.41,6.87,6.87,0,0,1,.59-2.88,6.48,6.48,0,0,1,1.74-2.31,8.62,8.62,0,0,1,2.86-1.56,12.12,12.12,0,0,1,3.87-.57,20.92,20.92,0,0,1,3.66.36,16.19,16.19,0,0,1,3.57,1,13.63,13.63,0,0,1-.36,1.87,11.49,11.49,0,0,1-.64,1.82,15.54,15.54,0,0,0-2.88-.92,13.51,13.51,0,0,0-3.11-.41,5.89,5.89,0,0,0-3.5.85A2.76,2.76,0,0,0,129,54.38a2.46,2.46,0,0,0,.9,2.12,10.28,10.28,0,0,0,2.36,1.23l3.35,1.32a21.47,21.47,0,0,1,2.32,1.06,8.55,8.55,0,0,1,1.91,1.42,6,6,0,0,1,1.3,2,7,7,0,0,1,.47,2.69,7.88,7.88,0,0,1-.69,3.31,7,7,0,0,1-2,2.59,9.79,9.79,0,0,1-3.28,1.7,14.79,14.79,0,0,1-4.48.62,19.73,19.73,0,0,1-4-.38A20.25,20.25,0,0,1,123.66,73Z"/>
    <path class="cls-1" d="M150,48q1.47-.18,3.33-.33c1.24-.09,2.51-.14,3.8-.14a19.78,19.78,0,0,1,4.37.47,10.41,10.41,0,0,1,3.59,1.54,7.45,7.45,0,0,1,2.4,2.76,9,9,0,0,1,.88,4.2,9.38,9.38,0,0,1-.92,4.3,8.64,8.64,0,0,1-2.48,3,10.63,10.63,0,0,1-3.59,1.75,15.43,15.43,0,0,1-4.2.57h-1.3a7.36,7.36,0,0,1-1.25-.1v7.89a13.9,13.9,0,0,1-2.27.19c-.34,0-.73,0-1.15,0s-.83-.08-1.21-.14Zm4.63,14.07a17.91,17.91,0,0,0,2.26.14,8.43,8.43,0,0,0,5-1.27q1.8-1.27,1.8-4.39a4.58,4.58,0,0,0-1.63-3.8,7.37,7.37,0,0,0-4.7-1.3,20.83,20.83,0,0,0-2.69.14Z"/>
    <path class="cls-1" d="M180.08,48c.44-.06.92-.11,1.44-.14s1,0,1.34,0,.77,0,1.28,0,.94.08,1.32.14l9.3,25.88a7.28,7.28,0,0,1-1.18.14c-.54,0-.94,0-1.23,0-.44,0-.88,0-1.32,0s-.87-.08-1.27-.14L188,68.49H177.34l-1.7,5.39c-.41.06-.85.11-1.32.14s-.92,0-1.33,0-.71,0-1.1,0-.78-.08-1.16-.14Zm6.75,16.76-4.2-12.84-4.16,12.84Z"/>
    <path class="cls-1" d="M201.51,48c1.17-.15,2.33-.27,3.5-.35s2.36-.12,3.58-.12a18,18,0,0,1,4.18.47,11.2,11.2,0,0,1,3.45,1.44A7,7,0,0,1,218.56,52a7.49,7.49,0,0,1,.85,3.65,7.93,7.93,0,0,1-.45,2.77,7.38,7.38,0,0,1-1.16,2.07A8.63,8.63,0,0,1,216.2,62a13.69,13.69,0,0,1-1.8,1.13.92.92,0,0,1-.28.14,1.34,1.34,0,0,0-.29.15l7.7,10.48a8.07,8.07,0,0,1-1.25.09h-2.72a8.35,8.35,0,0,1-1.22-.09l-8.5-11.52v-.19c.75-.25,1.53-.55,2.34-.88a11.42,11.42,0,0,0,2.21-1.2,6.31,6.31,0,0,0,1.68-1.7,4.24,4.24,0,0,0,.66-2.41,4,4,0,0,0-1.65-3.4,7.18,7.18,0,0,0-4.39-1.22c-.44,0-.88,0-1.3,0s-.86.08-1.3.14V73.88a17.88,17.88,0,0,1-2.22.14,20.89,20.89,0,0,1-2.36-.14Z"/>
    <path class="cls-1" d="M228.75,48c.38-.06.77-.11,1.16-.14s.8,0,1.2,0,.76,0,1.14,0,.75.08,1.13.14V73.88c-.38.06-.75.11-1.13.14s-.77,0-1.18,0-.73,0-1.14,0-.8-.08-1.18-.14Zm5.81,12.7,9.3-12.7c.47-.06.91-.11,1.32-.14s.79,0,1.14,0a12.19,12.19,0,0,1,1.34.08l1.4.11-9.31,12.37L250,73.88c-.44.06-.9.11-1.37.14s-.93,0-1.37,0L246,74a8.48,8.48,0,0,1-1.37-.16Z"/>
    <path class="cls-1" d="M123.66,22.15l.73-.06.86-.07.89,0c.3,0,.58,0,.83,0a8.36,8.36,0,0,1,2.77.42,5.47,5.47,0,0,1,2,1.21,5.14,5.14,0,0,1,1.2,1.88,7,7,0,0,1,.4,2.44,6,6,0,0,1-1.63,4.47A6.64,6.64,0,0,1,126.84,34c-.55,0-1.12,0-1.7,0a12.65,12.65,0,0,1-1.48-.16Zm2.08,10a5.54,5.54,0,0,0,.6.08l.69,0a5.59,5.59,0,0,0,1.68-.24,3.37,3.37,0,0,0,1.31-.77,3.63,3.63,0,0,0,.85-1.34,5.76,5.76,0,0,0,.31-2,5,5,0,0,0-.31-1.82,3.59,3.59,0,0,0-.85-1.29,3.44,3.44,0,0,0-1.3-.76,5.16,5.16,0,0,0-1.66-.26l-.66,0c-.26,0-.48,0-.66.07Z"/>
    <path class="cls-1" d="M144.78,22.15a4.35,4.35,0,0,1,.52-.06,4.53,4.53,0,0,1,.52,0,4.89,4.89,0,0,1,.54,0,3.8,3.8,0,0,1,.5.06V33.79l-.5.07-.52,0-.57,0-.49-.07Z"/>
    <path class="cls-1" d="M165.75,27.82a9.2,9.2,0,0,1,1-.06,8.72,8.72,0,0,1,1,.06v5.57a7.89,7.89,0,0,1-1.75.48,12.51,12.51,0,0,1-1.8.13,7.52,7.52,0,0,1-2.51-.38,4.87,4.87,0,0,1-1.88-1.15,5,5,0,0,1-1.19-1.9,7.51,7.51,0,0,1-.41-2.62,6.91,6.91,0,0,1,.4-2.4,5.64,5.64,0,0,1,1.16-1.92,5.16,5.16,0,0,1,1.84-1.28,6.28,6.28,0,0,1,2.44-.46,8.29,8.29,0,0,1,3.08.54,4.3,4.3,0,0,1-.16.76,9.19,9.19,0,0,1-.33.87c-.37-.11-.72-.2-1.07-.28a6.84,6.84,0,0,0-1.31-.1,4.12,4.12,0,0,0-1.72.33,3.39,3.39,0,0,0-1.2.9,3.68,3.68,0,0,0-.71,1.36,5.69,5.69,0,0,0-.24,1.68,4.47,4.47,0,0,0,1,3.16,3.76,3.76,0,0,0,2.9,1.09c.24,0,.49,0,.73,0a3.23,3.23,0,0,0,.66-.12Z"/>
    <path class="cls-1" d="M179.39,22.15a4.35,4.35,0,0,1,.52-.06,4.53,4.53,0,0,1,.52,0,4.89,4.89,0,0,1,.54,0,3.8,3.8,0,0,1,.5.06V33.79l-.5.07-.52,0-.57,0-.49-.07Z"/>
    <path class="cls-1" d="M195.79,23.93h-3.68A3.75,3.75,0,0,1,192,23a3.17,3.17,0,0,1,0-.44,3,3,0,0,1,.06-.43h9.46a6.15,6.15,0,0,1,.06.87,6,6,0,0,1-.06.89h-3.7v9.86h-.51a.34.34,0,0,1-.15,0h-.8c-.22,0-.42,0-.62,0Z"/>
    <path class="cls-1" d="M213.59,22.15a6.26,6.26,0,0,1,.65-.06l.6,0,.58,0a4.5,4.5,0,0,1,.59.06l4.19,11.64a3.43,3.43,0,0,1-.53.07l-.55,0-.6,0-.57-.07-.81-2.42h-4.78l-.77,2.42-.59.07-.6,0-.5,0-.52-.07Zm3,7.54-1.89-5.78-1.87,5.78Z"/>
    <path class="cls-1" d="M230.67,22.15a4,4,0,0,1,.5-.06,4.89,4.89,0,0,1,.54,0,4.53,4.53,0,0,1,.52,0,3.61,3.61,0,0,1,.5.06V32h5.1a5.78,5.78,0,0,1,.07.89,5.67,5.67,0,0,1-.07.91h-7.16Z"/>
    <path class="cls-1" d="M0,47.31A48.41,48.41,0,0,1,44.58.08c-.24,1.09-.43,2.18-.58,3.27,0,.37-.1.73-.14,1.1h0A44,44,0,0,0,45,20.59l-5.91-1.68c-.07.27-.15.53-.23.79A38.82,38.82,0,0,1,0,47.31Z"/>
    <path class="cls-1" d="M51,0A48.42,48.42,0,0,1,96.72,45.52c-.62-.12-1.25-.22-1.87-.31l-1.09-.13h0a44.41,44.41,0,0,0-16.17,1.18l1.69-5.92-.79-.24A38.77,38.77,0,0,1,51,0Z"/>
    <path class="cls-1" d="M19.36,53.16l0,.08-1.73,6.07.8.24A38.86,38.86,0,0,1,46.07,96.69,48.42,48.42,0,0,1,.3,53.88c.61.12,1.23.22,1.84.3l1.1.14h0A44.11,44.11,0,0,0,19.36,53.16Z"/>
    <path class="cls-1" d="M48.32,29.31A44.55,44.55,0,0,1,27.8,50l.05,0h0A44.4,44.4,0,0,1,48.56,70.33a.3.3,0,0,0,0-.08h0A44.49,44.49,0,0,1,68.89,49.53,44.37,44.37,0,0,1,48.32,29.31ZM51.93,53.4a12.2,12.2,0,0,0-3.58,8.65A12.24,12.24,0,0,0,36.11,49.82,12.26,12.26,0,0,0,48.35,37.58,12.24,12.24,0,0,0,60.58,49.82,12.2,12.2,0,0,0,51.93,53.4Z"/>
    <path class="cls-1" d="M96.66,52.06A48.41,48.41,0,0,1,52.85,96.54c0-.08,0-.16,0-.25,0-.37.09-.73.13-1.1h0a43.88,43.88,0,0,0-1.25-16.43h0l6.07,1.73c.08-.27.15-.53.24-.8A38.84,38.84,0,0,1,96.66,52.06Z"/>
</svg>