<svg id="logo_rituals" class="u-show-v-scroll" data-name="Layer 1"
    xmlns="http://www.w3.org/2000/svg" viewBox="0 0 100 96.68">
    <defs>
        <style>.cls-1{fill:#2b2b2b;}</style>
    </defs>
    <path class="cls-1" d="M6,19.68H2.25V13.56H0V10.07H2.21V0H3C5.47,0,8,0,10.53,0a15.8,15.8,0,0,1,3.36.38A5.91,5.91,0,0,1,17.8,3.46a6.66,6.66,0,0,1,.83,3.3,6,6,0,0,1-3.31,5.38c-.35.2-.73.35-1.21.57l4.82,6.91a2.72,2.72,0,0,1-.43.07c-1.21,0-2.42,0-3.63,0a.78.78,0,0,1-.75-.41C13,17.51,11.77,15.74,10.6,14a.82.82,0,0,0-.79-.43c-1.25,0-2.5,0-3.84,0Zm0-9.55c2.06-.06,4.07-.07,6.08-.19,2.21-.13,3.11-1.83,2.83-3.83A2.57,2.57,0,0,0,13.2,3.92,7.58,7.58,0,0,0,11,3.51c-1.48-.06-3,0-4.45,0-.18,0-.36,0-.55,0Z"/>
    <path class="cls-1" d="M1.47,93,4.1,90.67c.9.61,1.7,1.21,2.56,1.71a5.94,5.94,0,0,0,2.75.77,7.16,7.16,0,0,0,3.52-.51,2.78,2.78,0,0,0,1.69-2.18,1.87,1.87,0,0,0-1.25-1.81A25.65,25.65,0,0,0,10.51,88c-2-.35-4.09-.43-5.94-1.41A4.49,4.49,0,0,1,2.07,83a5.13,5.13,0,0,1,.65-3.23A5.94,5.94,0,0,1,5.17,77.5a11,11,0,0,1,6.17-1.14,10.4,10.4,0,0,1,4.11,1.14A9.63,9.63,0,0,1,18,79.36l-2.71,2.41c-.35-.3-.69-.62-1.07-.9a6.88,6.88,0,0,0-5-1.38,3.79,3.79,0,0,0-2.93,1.42,1.81,1.81,0,0,0,.4,2.57A6.28,6.28,0,0,0,9,84.24c1.63.27,3.28.46,4.91.77a6.5,6.5,0,0,1,3.23,1.55,4.22,4.22,0,0,1,1.28,2.59,6,6,0,0,1-.31,3,5.86,5.86,0,0,1-2.19,2.74,10.34,10.34,0,0,1-5.53,1.78A11.24,11.24,0,0,1,4.52,95.4,9.75,9.75,0,0,1,1.47,93Z"/>
    <path class="cls-1" d="M40.8,59.05,47.87,42.9H43.52V39.5h.64c2.25,0,4.51,0,6.76,0a.77.77,0,0,1,.88.6c.67,1.71,1.43,3.38,2.14,5.07l3.38,8c.78,1.84,1.59,3.67,2.38,5.51,0,.09,0,.19.08.38a24.56,24.56,0,0,0-2.58,0c-1,.1-1.57-.14-1.81-1.18a14.26,14.26,0,0,0-.8-2,.59.59,0,0,0-.65-.43q-3.63,0-7.27,0a.53.53,0,0,0-.61.43c-.33.94-.73,1.86-1.13,2.78-.08.17-.3.4-.45.41C43.28,59.06,42.07,59.05,40.8,59.05Zm12.34-6.89c-.94-2.33-1.81-4.58-2.75-6.79l-.15,0L47.5,52.16Z"/>
    <path class="cls-1" d="M2.1,39.52H5.86v.67c0,3.59,0,7.18,0,10.78a5,5,0,0,0,3.61,4.87,4.83,4.83,0,0,0,5.92-3,8.87,8.87,0,0,0,.48-3c0-3.2,0-6.39,0-9.59v-.73h3.6c0,.2,0,.4,0,.6,0,3.8.08,7.61,0,11.4a7.71,7.71,0,0,1-3.07,6.06,9,9,0,0,1-4,1.8,9.09,9.09,0,0,1-5-.53A8.06,8.06,0,0,1,3.05,55a8.15,8.15,0,0,1-.95-3.72c0-3.69,0-7.39,0-11.09Z"/>
    <path class="cls-1" d="M84.48,59V39.53H88.2v16h7.52V50.94h3.73V59Z"/>
    <path class="cls-1" d="M90.25,3.51H84.62V.06h15V3.51H94V19.64H90.25Z"/>
    <path class="cls-1" d="M52.07,19.66H48.51V.19h3.56Z"/>
    <path class="cls-1" d="M96.79,96.15A3.14,3.14,0,0,1,93.73,93a3.14,3.14,0,1,1,3.06,3.13Z"/>
    <path class="cls-1" d="M59,93a3.15,3.15,0,0,1-3,3.14A3.19,3.19,0,0,1,52.75,93a3.24,3.24,0,0,1,3.16-3.11A3.12,3.12,0,0,1,59,93Z"/>
    <path class="cls-1" d="M73.3,93c-.24-1.54,1.43-3.2,3.16-3.13A3.21,3.21,0,0,1,79.55,93a3.27,3.27,0,0,1-3.23,3.14C74.91,96.17,73.05,94.65,73.3,93Z"/>
</svg>