<svg id="logo_shoeby" class="u-show-v-scroll" data-name="Layer 1"
    xmlns="http://www.w3.org/2000/svg" viewBox="0 0 250 86.46">
    <defs>
        <style>.cls-1{fill:#2b2b2b;}</style>
    </defs>
    <path class="cls-1" d="M46.35,0q0,15.2,0,30.4v4.49c.27-.18.46-.3.64-.44a54.59,54.59,0,0,1,7.68-5,15.41,15.41,0,0,1,8.18-2,9.73,9.73,0,0,1,7.85,4.06,11.52,11.52,0,0,1,1.93,5.66c.09.95.12,1.91.12,2.86q0,10.56,0,21.1c0,.21,0,.43,0,.65a3.25,3.25,0,0,0,2.83,3.44c.82.18,1.66.23,2.55.34V68.2c-7.17-.34-14.3-.35-21.48,0V65.55c.75,0,1.48-.06,2.21-.15,2.46-.3,3.41-1.3,3.62-3.78,0-.63.09-1.26.09-1.89q0-9.55,0-19.13a14.57,14.57,0,0,0-.26-2.72c-.58-2.84-2.49-4.36-5.55-4.53a11.1,11.1,0,0,0-5.55,1.38,24.82,24.82,0,0,0-4.51,3,.87.87,0,0,0-.36.77c0,7.68,0,15.36,0,23,0,2.51,1.46,3.93,4,4,.32,0,.64,0,1,0v2.7a200.15,200.15,0,0,0-20.2,0V65.54l.62,0A8.92,8.92,0,0,0,33,65.41a3.56,3.56,0,0,0,3.23-3.64c0-.24,0-.48,0-.72q0-25.51,0-51a12.48,12.48,0,0,0-.11-1.62,2.16,2.16,0,0,0-2.29-2.12,16.69,16.69,0,0,0-2.33.16,5,5,0,0,0-.67.12V4c1.17-.19,2.35-.35,3.51-.56A67.42,67.42,0,0,0,45.88.17,2.16,2.16,0,0,0,46.22,0Z"/>
    <path class="cls-1" d="M177.21,0c0,.46,0,.91,0,1.37V30.92c0,.19,0,.38,0,.67.32-.15.56-.26.8-.39A32.47,32.47,0,0,1,186.41,28a22.52,22.52,0,0,1,10.07.08,14.48,14.48,0,0,1,10.77,9.79,23.66,23.66,0,0,1-8,26.48,23.07,23.07,0,0,1-10.46,4.19,39.74,39.74,0,0,1-12.5-.45A48.89,48.89,0,0,1,168,66c-.75-.26-1.48-.59-2.17-.87.3-1.37.66-2.64.85-3.94a32.81,32.81,0,0,0,.37-4.53q0-23.93,0-47.85a5.82,5.82,0,0,0,0-.59,1.59,1.59,0,0,0-1.66-1.58c-.84,0-1.68.1-2.52.16l-.48.08V4c1.11-.19,2.22-.36,3.31-.6A88.43,88.43,0,0,0,176.62.22c.16-.06.31-.15.46-.22Zm0,48.84c0,4.62,0,9.24,0,13.86a1.18,1.18,0,0,0,.59,1.12A13.28,13.28,0,0,0,186.9,66a13.12,13.12,0,0,0,11.3-9.58,21.36,21.36,0,0,0,.62-7.55,21.45,21.45,0,0,0-3.14-9.8,13,13,0,0,0-7.59-6,15.43,15.43,0,0,0-10.46,1c-.4.18-.39.46-.39.79Z"/>
    <path class="cls-1" d="M250,30.73a1.29,1.29,0,0,1-.19,0,6.56,6.56,0,0,0-5.5,4.31c-.85,2-1.6,4-2.36,6.06q-5.82,15.55-11.64,31.12A38.44,38.44,0,0,1,226,80.89a13.06,13.06,0,0,1-5,4.51,11,11,0,0,1-3.37.93,6.39,6.39,0,0,0-.63.13h-3c-1-.25-2-.51-3-.75a.49.49,0,0,1-.43-.54L210,74.83c0-.08,0-.17.05-.32.74,0,1.47,0,2.2,0,.13,0,.31.25.35.42.13.52.18,1.07.32,1.59.88,3.11,3.23,4.3,6.2,4,2.5-.27,4.16-1.81,5.49-3.78A26.19,26.19,0,0,0,228,68.67a1.4,1.4,0,0,0-.16-.86q-3-6.7-6.05-13.39c-3-6.54-5.95-13.07-8.86-19.62a6.34,6.34,0,0,0-5.32-3.94l-.94-.13V28.06c7.49.32,15,.35,22.54,0v2.7a15.85,15.85,0,0,0-1.69,0,7.57,7.57,0,0,0-1.84.34,2.05,2.05,0,0,0-1.46,2.38,6.55,6.55,0,0,0,.44,1.82q4.11,9.68,8.25,19.33c0,.08.08.15.17.33a4.66,4.66,0,0,0,.25-.54q3.24-9.24,6.45-18.49a9.83,9.83,0,0,0,.5-2.21,2.21,2.21,0,0,0-2-2.71,19.94,19.94,0,0,0-2.45-.26c-.41,0-.82,0-1.31,0V28.16c.7,0,1.34,0,2,0a99.42,99.42,0,0,0,11.58,0c.65,0,1.3,0,1.95,0Z"/>
    <path class="cls-1" d="M0,56.38c.72,0,1.43,0,2.15,0,.39,0,.55.11.62.53a13,13,0,0,0,1.69,4.61,9.34,9.34,0,0,0,7,4.47,10.53,10.53,0,0,0,6-.77,6,6,0,0,0,2.32-1.84,4.52,4.52,0,0,0-.62-6.22,17.81,17.81,0,0,0-4.29-2.8c-2.11-1.07-4.23-2.11-6.32-3.21a22.75,22.75,0,0,1-4.85-3.48A11.49,11.49,0,0,1,7.37,28.94a20,20,0,0,1,6.77-1.45A39.4,39.4,0,0,1,26.35,29c.3.08.49.17.5.54.1,3.21.22,6.42.33,9.63a3.13,3.13,0,0,1,0,.39c-.76,0-1.49,0-2.21,0-.13,0-.3-.32-.34-.51a13.18,13.18,0,0,0-1.73-4.4,9.31,9.31,0,0,0-11.33-3.9,5.08,5.08,0,0,0-3.23,5.85A4.91,4.91,0,0,0,9.79,39a18.56,18.56,0,0,0,4.43,2.94c2.49,1.32,5,2.59,7.46,4a15.15,15.15,0,0,1,5.13,4.52A11,11,0,0,1,24.62,65a16.26,16.26,0,0,1-7.72,3.36A28.64,28.64,0,0,1,0,66.15Z"/>
    <path class="cls-1" d="M100.78,68.8A23.38,23.38,0,0,1,90,66.55a18.48,18.48,0,0,1-10-12.3,22.86,22.86,0,0,1,1.45-15.69,18.06,18.06,0,0,1,10.85-9.71,23.32,23.32,0,0,1,17.82.66A18.47,18.47,0,0,1,120.94,42.9a23,23,0,0,1,.3,9.94,18.76,18.76,0,0,1-12.52,14.6A22.09,22.09,0,0,1,100.78,68.8Zm10-21.76c-.08-1-.18-3.06-.42-5.09a18.86,18.86,0,0,0-1.82-6.4,9,9,0,0,0-16.15-.06,19.21,19.21,0,0,0-1.79,5.95,48,48,0,0,0-.25,11.36,23.91,23.91,0,0,0,1.42,6.52,10.73,10.73,0,0,0,2.93,4.39,8.78,8.78,0,0,0,6.63,1.93,8.13,8.13,0,0,0,6-3,13.28,13.28,0,0,0,2.34-4.75A40,40,0,0,0,110.81,47Z"/>
    <path class="cls-1" d="M160.13,58c.09,1,.17,1.94.25,2.91.09,1.14.16,2.29.28,3.43,0,.39-.18.54-.44.7a22.63,22.63,0,0,1-8.2,3.19,34.23,34.23,0,0,1-12.36.16A18.34,18.34,0,0,1,124,52.41a24.71,24.71,0,0,1,1.48-12.84,18.46,18.46,0,0,1,11.11-10.66,21.59,21.59,0,0,1,9.13-1.42c6.56.44,11.13,3.74,13.61,9.84a24.36,24.36,0,0,1,1.6,9.1,2.64,2.64,0,0,1-.05.36H134.57c.11,1.31.17,2.54.33,3.76a19.8,19.8,0,0,0,3.25,8.83,14.35,14.35,0,0,0,5.45,4.81,11.09,11.09,0,0,0,12.7-1.8,20.68,20.68,0,0,0,3.42-4c.08-.13.16-.26.25-.38S160.05,58,160.13,58ZM150,44.1c0-1.18,0-2.28,0-3.39a22.36,22.36,0,0,0-.91-6c-1-3-2.73-4.41-5.83-4.6a6.6,6.6,0,0,0-6.64,3.33,10.69,10.69,0,0,0-.89,2,27.85,27.85,0,0,0-1.06,8.42c0,.06,0,.11.08.18Z"/>
</svg>