<svg id="logo_corio" class="u-show-v-scroll" data-name="Layer 1"
    xmlns="http://www.w3.org/2000/svg" viewBox="0 0 250 70.55">
    <defs>
        <style>.cls-1{fill:#2b2b2b;}</style>
    </defs>
    <path class="cls-1" d="M188.75,68.42v1.71a4.84,4.84,0,0,1-.76.13c-7.52,0-15.05,0-22.57-.07a24.54,24.54,0,0,1-8.3-1.45A19.71,19.71,0,0,1,150.06,64q-7.89-7.81-15.71-15.7a6.22,6.22,0,0,1-.48-.61c1-.22,1.86-.32,2.69-.6a10.71,10.71,0,0,0,7.12-7.53,15.7,15.7,0,0,0-.26-9.54c-1.37-4.06-4.37-6.21-8.52-6.76a30.67,30.67,0,0,0-4.89-.05c-1.3,0-1.3.11-1.3,1.48,0,3.19,0,6.38,0,9.57,0,8.47,0,16.93,0,25.4a32.62,32.62,0,0,0,.39,4.63,3.21,3.21,0,0,0,2.83,2.83,23.94,23.94,0,0,0,2.67.29c.48,0,1,0,1.5,0,0,.4.07.68.1,1,.09.74-.21,1-1,1-6.87,0-13.74,0-20.61,0a5.24,5.24,0,0,1-.62-.07l-.11-1.73c.39-.05.7-.1,1-.12s.66,0,1,0c3.44-.26,4.7-1.48,4.73-4.94.06-9.08.05-18.16.06-27.24q0-3.32,0-6.63a11.15,11.15,0,0,0-.21-1.82A3.15,3.15,0,0,0,117.79,24c-1.23-.25-2.49-.35-3.8-.53V21.72c2-.13,4-.32,5.91-.37,5.32-.13,10.63-.33,15.95-.26a22.35,22.35,0,0,1,11,2.89,12.39,12.39,0,0,1,1.47,20.44c-1.34,1-2.86,1.87-4.38,2.84.48.44,1,.9,1.47,1.39,4.17,4.27,8.3,8.58,12.49,12.83a25.81,25.81,0,0,0,7.86,6,6.57,6.57,0,0,0,4.65.51,5.12,5.12,0,0,0,3.95-4.62,22.58,22.58,0,0,0,.1-2.33q0-15.09,0-30.19c0-.73,0-1.47-.09-2.2-.22-2.42-1.36-3.59-3.78-3.91-.64-.09-1.29-.12-2-.18,0-.35-.07-.66-.11-1-.08-.7.25-.94.93-.93,1.76,0,3.52,0,5.27,0h12.52c1.74,0,1.78.05,1.42,1.9-.62.05-1.26.09-1.91.16-2.58.3-3.78,1.5-4.07,4.09-.1,1-.15,2-.16,2.94q0,14.65,0,29.33a22.47,22.47,0,0,0,.28,3.66c.37,2.21,1.45,3.18,3.66,3.48C187.18,68.29,187.91,68.34,188.75,68.42Z"/>
    <path class="cls-1" d="M82.38,20.35c2.07.33,3.92.55,5.74.92,12.3,2.56,20,12.89,19,25.38A25.52,25.52,0,0,1,84.33,70.29a29.74,29.74,0,0,1-17.64-2.87c-8.63-4.5-13.11-13.08-12.23-22.87.83-9.19,5.76-15.48,13.65-19.76.61-.33,1.23-.64,1.86-.94,1.26-.59,1.26-.58,1.88.8l-1.28,1.08a22.29,22.29,0,0,0-7.44,13.59,33.9,33.9,0,0,0,.72,15.54c2.83,9.63,12.3,15.23,21.77,12.79,4.93-1.27,8.26-4.52,10.38-9,2.54-5.39,2.94-11.09,2.14-16.91a25.19,25.19,0,0,0-5.41-13,16.73,16.73,0,0,0-12-6.33c-.36,0-1-.27-1-.45a1.77,1.77,0,0,1,.39-1.27c2.29-2.39,4.63-4.73,7-7.09Q92.39,8.27,97.71,2.91A24.92,24.92,0,0,1,99.8,1a3.89,3.89,0,0,1,5.43.17,4,4,0,0,1,.07,5.75A15.34,15.34,0,0,1,102,9.3c-6.15,3.48-12.34,6.89-18.52,10.34C83.19,19.82,82.87,20,82.38,20.35Z"/>
    <path class="cls-1" d="M223,20.44c5.67,0,10.64,1,15.21,3.59A21.89,21.89,0,0,1,249.87,42c.86,9.67-2.53,17.67-10.39,23.53a26,26,0,0,1-14,4.94,29.31,29.31,0,0,1-16.59-3.37c-7-3.87-11.21-9.75-11.93-17.75-.87-9.6,2.2-17.71,10-23.74A26.88,26.88,0,0,1,223,20.44Zm18.31,25.81c0-.69-.06-1.71-.15-2.73a26.73,26.73,0,0,0-4.8-13.71,16.74,16.74,0,0,0-19.52-6c-4.92,1.82-8,5.5-9.63,10.31A31.52,31.52,0,0,0,207,54.5a20.18,20.18,0,0,0,6.87,10.07c7.53,5.9,19.59,5,24.8-5.63A29.11,29.11,0,0,0,241.31,46.25Z"/>
    <path class="cls-1" d="M47.71,56.71l-4.5,11.73c-.09.23-.2.44-.32.71-3.56-1-6.92.3-10.32.82a35.65,35.65,0,0,1-16.14-.78C7.41,66.4,2,60.32.45,51A27.18,27.18,0,0,1,4.47,31c3.77-5.7,9.23-8.87,15.88-10.13a40,40,0,0,1,17.83,1.1,25.85,25.85,0,0,0,3.1.74,7.71,7.71,0,0,0,2-.22c.59-.07,1.18-.16,1.91-.27.05,1,.12,1.93.15,2.82.08,2.86.16,5.72.21,8.58,0,.47.3,1.1-.52,1.27s-1.49,0-1.83-.9a19.17,19.17,0,0,0-3.56-6c-3.5-3.86-8-5.41-13.07-5.34-8.12.11-14.16,4.95-16.57,12.88a28.35,28.35,0,0,0,1.76,21.81C14.14,62,17.7,65.45,22.8,67c7.27,2.21,13.55.27,18.85-5a22.33,22.33,0,0,0,3.29-4.26A2.09,2.09,0,0,1,47.71,56.71Z"/>
</svg>