<svg id="logo_ns" class="u-show-v-scroll" data-name="Layer 1"
    xmlns="http://www.w3.org/2000/svg" viewBox="0 0 100 39.05">
    <defs>
        <style>.cls-1{fill:#2b2b2b;fill-rule:evenodd;}</style>
    </defs>
    <path id="path25442" class="cls-1" d="M43.71,18.77A10.94,10.94,0,0,0,36,15.63H15l7.79-7.82H42.59a3.21,3.21,0,0,1,2.17.94L56.27,20.29A11,11,0,0,0,64,23.43H85.05l-7.81,7.81H57.44a3.12,3.12,0,0,1-2.18-1Zm6,17.05a10.77,10.77,0,0,0,7.7,3.23h23L100,19.53,80.46,0h-11L85.05,15.63H64a3.06,3.06,0,0,1-2.15-.87L50.28,3.24A10.81,10.81,0,0,0,42.59,0H19.54L0,19.53,19.54,39.05h11L15,23.43H36a3,3,0,0,1,2.15.88L49.74,35.82"/>
</svg>